<?xml version="1.0" encoding="UTF-8"?> <svg xmlns="http://www.w3.org/2000/svg" width="48" height="48" viewBox="0 0 48 48" fill="none"> <g clip-path="url(#clip0)"> <path fill-rule="evenodd" clip-rule="evenodd" d="M33.4629 36.4804V22.6289L32.9829 21.8061V20.1604H28.3886V21.8061L27.9086 22.6289V36.4118H26.7429V22.6289L26.2629 21.8061V20.1604H24H21.6686V21.8061L21.1886 22.6289V36.4118H20.0229V22.6289L19.5429 21.8061V20.1604H14.9486V21.8061L14.4686 22.6289V36.4118H13.3029V22.6289L12.8229 21.8061V20.1604H8.22857V21.8061L7.74857 22.6289H12.8914C12.8914 22.6289 12.96 22.6289 12.96 22.6975V36.4118H11.52V29.7604C11.52 29.2118 11.04 28.7318 10.4914 28.7318C9.94286 28.7318 9.46286 29.2118 9.46286 29.7604V36.4118H6.58286V20.1604V19.9547V18.5147C6.58286 18.5147 6.58286 18.5147 6.65143 18.5147H41.3486C41.3486 18.5147 41.4171 18.5147 41.4171 18.5832V36.5489V22.8347V36.5489H38.4686V29.8975C38.4686 29.3489 37.9886 28.8689 37.44 28.8689C36.8914 28.8689 36.4114 29.3489 36.4114 29.8975V36.5489H34.9714V22.8347C34.9714 22.8347 34.9714 22.7661 35.04 22.7661H40.1829L39.7714 21.8061V20.1604H35.1771V21.8061L34.6971 22.6289V36.4118H33.4629V36.4804ZM24 0.000366211C35.3829 0.000366211 44.8457 7.88608 47.3829 18.5147H42.24L42.6514 19.2689C43.1314 19.2689 47.52 19.2689 47.52 19.2689C47.52 19.4061 47.52 19.4061 47.5886 19.5432H42.24L42.9943 20.8461H47.7943C47.9314 21.8747 48 22.9718 48 24.0689C48 26.8804 47.52 29.5547 46.6286 32.0232V22.7661C46.6286 22.6975 46.56 22.6975 46.56 22.6975H41.8286C41.76 22.6975 41.76 22.7661 41.76 22.7661V40.1832C41.6229 40.3204 41.5543 40.3889 41.4171 40.5261V37.3032H6.58286V40.5261C6.44571 40.3889 6.37714 40.3204 6.24 40.1832V22.7661C6.24 22.6975 6.24 22.6289 6.17143 22.6289H1.44C1.37143 22.6289 1.37143 22.6975 1.37143 22.7661V31.9547C0.48 29.4175 0 26.7432 0 24.0004C0 22.9032 0.0685714 21.8747 0.205714 20.7775H5.07429L5.82857 19.4747H0.411429C0.411429 19.3375 0.411429 19.3375 0.48 19.2004H5.41714L5.82857 18.5147H0.617143C3.15429 7.88608 12.6171 0.000366211 24 0.000366211ZM38.9486 42.7889C37.9886 43.5432 37.0286 44.2289 35.9314 44.8461V41.8289C35.9314 41.0061 36.6171 40.3204 37.3714 40.3204C37.7829 40.3204 38.1257 40.4575 38.4686 40.7318C38.7429 41.0061 38.88 41.3489 38.88 41.7604V42.7889H38.9486ZM32.2286 46.5604C31.2686 46.9032 30.24 47.1775 29.2114 47.4518V41.8289C29.2114 41.0061 29.8286 40.3889 30.5829 40.3204H30.6514C31.0629 40.3204 31.4743 40.4575 31.7486 40.7318C32.0229 41.0061 32.16 41.3489 32.16 41.7604V46.5604H32.2286ZM25.9886 47.9318C25.7829 47.9318 25.5771 47.9318 25.3029 48.0004V41.9661C25.3029 41.6232 25.1657 41.2804 24.8914 41.0061C24.6171 40.7318 24.3429 40.5947 23.9314 40.5947C23.5886 40.5947 23.2457 40.7318 22.9714 41.0061C22.6971 41.2804 22.56 41.5547 22.56 41.9661V48.0004C22.3543 48.0004 22.1486 48.0004 21.8743 47.9318V41.9661C21.8743 41.4175 22.08 40.9375 22.4914 40.5261C22.8343 40.1832 23.3829 39.9089 23.9314 39.9089C24.48 39.9089 24.96 40.1147 25.3714 40.5261C25.7143 40.8689 25.9886 41.4175 25.9886 41.9661V47.9318ZM18.7886 47.4518C17.76 47.2461 16.7314 46.9032 15.7714 46.5604V41.8289C15.7714 41.4175 15.9086 41.0061 16.1829 40.8004C16.4571 40.5261 16.8 40.3889 17.1429 40.3889C17.5543 40.3889 17.9657 40.5261 18.3086 40.8004C18.5829 41.0747 18.72 41.4175 18.72 41.8289V47.4518H18.7886ZM12.0686 44.8461C11.04 44.2289 10.0114 43.5432 9.05143 42.7889V41.8289C9.05143 41.0061 9.73714 40.3204 10.4914 40.3204H10.56C10.9714 40.3204 11.3143 40.4575 11.6571 40.7318C11.9314 41.0061 12.0686 41.3489 12.0686 41.7604V44.8461ZM2.81143 24.1375H4.86857V26.1947H2.81143V24.1375ZM43.1314 24.1375H45.1886V26.1947H43.1314V24.1375ZM29.6914 24.1375H31.7486V26.1947H29.6914V24.1375ZM36.4114 24.1375H38.4686V26.1947H36.4114V24.1375ZM22.9714 24.1375H25.0286V26.1947H22.9714V24.1375ZM16.2514 24.1375H18.3086V26.1947H16.2514V24.1375ZM9.53143 24.1375H11.5886V26.1947H9.53143V24.1375ZM28.2514 36.4804V22.7661C28.2514 22.7661 28.2514 22.6975 28.32 22.6975H33.12C33.12 22.6975 33.1886 22.6975 33.1886 22.7661V36.4804H31.7486V29.8289C31.7486 29.2804 31.2686 28.8004 30.72 28.8004C30.1714 28.8004 29.6914 29.2804 29.6914 29.8289V36.4804H28.2514ZM26.4686 22.6975C26.4686 22.6975 26.4 22.6289 26.4686 22.6975L21.6 22.6289C21.6 22.6289 21.5314 22.6289 21.5314 22.6975V36.4118H22.9714V29.7604C22.9714 29.2118 23.4514 28.7318 24 28.7318C24.5486 28.7318 25.0286 29.2118 25.0286 29.7604V36.4118H26.4686V22.6975ZM19.7486 22.6975C19.7486 22.6975 19.68 22.6289 19.7486 22.6975L14.88 22.6289C14.88 22.6289 14.8114 22.6289 14.8114 22.6975V36.4118H16.2514V29.7604C16.2514 29.2118 16.7314 28.7318 17.28 28.7318C17.8286 28.7318 18.3086 29.2118 18.3086 29.7604V36.4118H19.7486V22.6975ZM24 7.26894L42.9943 15.4289H39.0171L24 8.98322L8.98286 15.4289C7.88571 15.4289 5.00571 15.4289 5.00571 15.4289L24 7.26894ZM41.3486 17.4861C41.3486 17.4861 41.4171 17.4861 41.3486 17.4861V18.2404H24H6.65143V17.4861H24C29.76 17.4861 35.5886 17.4861 41.3486 17.4861ZM42.9943 15.7718H24.0686H24H5.00571L5.55429 16.4575H24H24.0686H42.4457L42.9943 15.7718ZM12.6857 15.4289H21.2571C21.2571 14.5375 21.7371 13.7147 22.4914 13.2347V15.4289H23.2457V12.8232C23.52 12.7547 23.7943 12.6861 24.0686 12.6861C24.3429 12.6861 24.6171 12.6861 24.8914 12.8232V15.4289H25.6457V13.2347C26.3314 13.7147 26.8114 14.5375 26.88 15.4289H35.4514L24.1371 10.6289C20.2286 12.2061 16.4571 13.7832 12.6857 15.4289C12.6171 15.4289 12.6171 15.4289 12.6857 15.4289Z" fill="#0062AF"></path> <path fill-rule="evenodd" clip-rule="evenodd" d="M9.05143 42.7889V41.8289C9.05143 41.0061 9.73714 40.3203 10.4914 40.3203H10.56C10.9714 40.3203 11.3143 40.4575 11.6571 40.7318C11.9314 41.0061 12.0686 41.3489 12.0686 41.7604V44.7775C13.2343 45.4632 14.4686 46.0118 15.7714 46.4918V41.8289C15.7714 41.4175 15.9086 41.0061 16.1829 40.8004C16.4571 40.5261 16.8 40.3889 17.1429 40.3889C17.5543 40.3889 17.9657 40.5261 18.3086 40.8004C18.5829 41.0746 18.72 41.4175 18.72 41.8289V47.4518C19.7486 47.6575 20.8457 47.8632 21.9429 47.9318V41.9661C21.9429 41.4175 22.1486 40.9375 22.56 40.5261C22.9029 40.1832 23.4514 39.9089 24 39.9089C24.5486 39.9089 25.0286 40.1146 25.44 40.5261C25.7829 40.8689 26.0571 41.4175 26.0571 41.9661V47.9318C27.1543 47.8632 28.1829 47.6575 29.28 47.4518V41.8289C29.28 41.0061 29.8971 40.3889 30.6514 40.3203H30.72C31.1314 40.3203 31.5429 40.4575 31.8171 40.7318C32.0914 41.0061 32.2286 41.3489 32.2286 41.7604V46.4918C33.6 46.0118 34.6971 45.4632 35.9314 44.7775V41.7604C35.9314 40.9375 36.6171 40.2518 37.3714 40.2518C37.7829 40.2518 38.1257 40.3889 38.4686 40.6632C38.7429 40.9375 38.88 41.2803 38.88 41.6918V42.6518C39.7714 41.9661 40.5257 41.2118 41.3486 40.3889V37.1661H6.58286V40.3889C7.33714 41.3489 8.16 42.1032 9.05143 42.7889ZM33.4629 36.4803V22.6289L32.9829 21.8061V20.1603H28.3886V21.8061L27.9086 22.6289V36.4118H26.7429V22.6289L26.2629 21.8061V20.1603H24H21.6686V21.8061L21.1886 22.6289V36.4118H20.0229V22.6289L19.5429 21.8061V20.1603H14.9486V21.8061L14.4686 22.6289V36.4118H13.3029V22.6289L12.8229 21.8061V20.1603H8.22857V21.8061L7.74857 22.6289H12.8914C12.8914 22.6289 12.96 22.6289 12.96 22.6975V36.4118H11.52V29.7604C11.52 29.2118 11.04 28.7318 10.4914 28.7318C9.94286 28.7318 9.46286 29.2118 9.46286 29.7604V36.4118H6.58286V20.1603V19.9546V18.5146C6.58286 18.5146 6.58286 18.5146 6.65143 18.5146H41.3486C41.3486 18.5146 41.4171 18.5146 41.4171 18.5832V36.5489V22.8346V36.5489H38.4686V29.8975C38.4686 29.3489 37.9886 28.8689 37.44 28.8689C36.8914 28.8689 36.4114 29.3489 36.4114 29.8975V36.5489H34.9714V22.8346C34.9714 22.8346 34.9714 22.7661 35.04 22.7661H40.1829L39.7714 21.8061V20.1603H35.1771V21.8061L34.6971 22.6289V36.4118H33.4629V36.4803ZM47.3829 18.5146C47.4514 18.7889 47.52 18.9946 47.52 19.2689H42.6514L42.24 18.5146H47.3829ZM47.5886 19.4746C47.6571 19.8861 47.7257 20.3661 47.7943 20.7775H42.9943L42.24 19.4746H47.5886ZM0.480001 19.2003C0.548572 18.9261 0.617144 18.7203 0.617144 18.4461H5.76L5.41714 19.2003H0.480001ZM0.205715 20.7775C0.274287 20.2975 0.342858 19.8861 0.411429 19.4746H5.76L5.00571 20.7775H0.205715ZM6.24 40.1832C4.11429 37.7832 2.4 34.9718 1.37143 31.8861V22.7661C1.37143 22.6975 1.37143 22.6289 1.44 22.6289H6.17143C6.24 22.6289 6.24 22.6975 6.24 22.6975V40.1832ZM2.81143 24.1375H4.86857V26.1946H2.81143V24.1375ZM46.6286 31.9546C45.5314 35.0403 43.8857 37.7832 41.6914 40.1832V22.7661C41.6914 22.6975 41.76 22.6975 41.76 22.6975H46.4914C46.56 22.6975 46.56 22.7661 46.56 22.7661V31.9546H46.6286ZM43.1314 24.1375H45.1886V26.1946H43.1314V24.1375ZM29.6914 24.1375H31.7486V26.1946H29.6914V24.1375ZM36.4114 24.1375H38.4686V26.1946H36.4114V24.1375ZM22.9714 24.1375H25.0286V26.1946H22.9714V24.1375ZM16.2514 24.1375H18.3086V26.1946H16.2514V24.1375ZM9.53143 24.1375H11.5886V26.1946H9.53143V24.1375ZM28.2514 36.4803V22.7661C28.2514 22.7661 28.2514 22.6975 28.32 22.6975H33.12C33.12 22.6975 33.1886 22.6975 33.1886 22.7661V36.4803H31.7486V29.8289C31.7486 29.2804 31.2686 28.8004 30.72 28.8004C30.1714 28.8004 29.6914 29.2804 29.6914 29.8289V36.4803H28.2514ZM26.4686 22.6975C26.4686 22.6975 26.4 22.6289 26.4686 22.6975L21.6 22.6289C21.6 22.6289 21.5314 22.6289 21.5314 22.6975V36.4118H22.9714V29.7604C22.9714 29.2118 23.4514 28.7318 24 28.7318C24.5486 28.7318 25.0286 29.2118 25.0286 29.7604V36.4118H26.4686V22.6975ZM19.7486 22.6975C19.7486 22.6975 19.68 22.6289 19.7486 22.6975L14.88 22.6289C14.88 22.6289 14.8114 22.6289 14.8114 22.6975V36.4118H16.2514V29.7604C16.2514 29.2118 16.7314 28.7318 17.28 28.7318C17.8286 28.7318 18.3086 29.2118 18.3086 29.7604V36.4118H19.7486V22.6975ZM24 7.26892L42.9943 15.4289H39.0171L24 8.98321L8.98286 15.4289C7.88572 15.4289 5.00571 15.4289 5.00571 15.4289L24 7.26892ZM41.3486 17.4861C41.3486 17.4861 41.4171 17.4861 41.3486 17.4861V18.2403H24H6.65143V17.4861H24C29.76 17.4861 35.5886 17.4861 41.3486 17.4861ZM42.9943 15.7718H24.0686H24H5.00571L5.55429 16.4575H24H24.0686H42.4457L42.9943 15.7718ZM12.6857 15.4289H21.2571C21.2571 14.4689 21.7371 13.7146 22.4914 13.2346V15.4289H23.2457V12.8232C23.52 12.7546 23.7943 12.6861 24.0686 12.6861C24.3429 12.6861 24.6171 12.6861 24.8914 12.8232V15.4289H25.6457V13.2346C26.3314 13.7146 26.8114 14.5375 26.88 15.4289H35.4514L24.1371 10.6289C20.2286 12.2061 16.4571 13.7832 12.6857 15.4289C12.6171 15.4289 12.6171 15.4289 12.6857 15.4289ZM25.3029 47.9318V41.8975C25.3029 41.5546 25.1657 41.2118 24.8914 40.9375C24.6171 40.6632 24.3429 40.5261 23.9314 40.5261C23.5886 40.5261 23.2457 40.6632 22.9714 40.9375C22.6971 41.2118 22.56 41.4861 22.56 41.8975V47.9318C22.56 47.9318 23.7943 48.0004 23.8629 48.0004C24.48 48.0004 24.8914 48.0004 25.3029 47.9318Z" fill="white"></path> </g> <defs> <clipPath id="clip0"> <rect width="48" height="48" fill="white" transform="translate(0 0.000366211)"></rect> </clipPath> </defs> </svg> 